<mxfile host="www.draw.io" modified="2020-02-13T05:22:46.230Z" agent="Mozilla/5.0 (Windows NT 10.0; Win64; x64) AppleWebKit/537.36 (KHTML, like Gecko) Chrome/80.0.3987.100 Safari/537.36" etag="CGcJJD_vme0nsTCDwh40" version="12.6.8" type="github" pages="2">
  <diagram id="1PtALkS8NQNCqhiWlU15" name="7.1: Display New Dept Form">
    <mxGraphModel dx="1038" dy="580" grid="1" gridSize="10" guides="1" tooltips="1" connect="1" arrows="1" fold="1" page="1" pageScale="1" pageWidth="850" pageHeight="1100" math="0" shadow="0">
      <root>
        <mxCell id="0"/>
        <mxCell id="1" parent="0"/>
        <mxCell id="G_N2jdx2ukAJO5X8EUTF-1" value="7.1&lt;br&gt;Display New Department Form" style="whiteSpace=wrap;html=1;aspect=fixed;" vertex="1" parent="1">
          <mxGeometry x="395" y="40" width="80" height="80" as="geometry"/>
        </mxCell>
        <mxCell id="G_N2jdx2ukAJO5X8EUTF-2" value="" style="endArrow=classic;html=1;" edge="1" parent="1">
          <mxGeometry width="50" height="50" relative="1" as="geometry">
            <mxPoint x="290" y="480" as="sourcePoint"/>
            <mxPoint x="290" y="480" as="targetPoint"/>
          </mxGeometry>
        </mxCell>
        <mxCell id="G_N2jdx2ukAJO5X8EUTF-3" value="7.1.3&lt;br&gt;Display New Department Form on Screen" style="whiteSpace=wrap;html=1;aspect=fixed;" vertex="1" parent="1">
          <mxGeometry x="510" y="240" width="80" height="80" as="geometry"/>
        </mxCell>
        <mxCell id="G_N2jdx2ukAJO5X8EUTF-4" value="" style="endArrow=classic;html=1;exitX=0;exitY=1;exitDx=0;exitDy=0;entryX=0.5;entryY=0;entryDx=0;entryDy=0;strokeWidth=2;" edge="1" parent="1" source="G_N2jdx2ukAJO5X8EUTF-11" target="G_N2jdx2ukAJO5X8EUTF-10">
          <mxGeometry width="50" height="50" relative="1" as="geometry">
            <mxPoint x="370" y="380" as="sourcePoint"/>
            <mxPoint x="300" y="440" as="targetPoint"/>
          </mxGeometry>
        </mxCell>
        <mxCell id="G_N2jdx2ukAJO5X8EUTF-5" value="" style="endArrow=classic;html=1;exitX=0.75;exitY=1;exitDx=0;exitDy=0;strokeWidth=2;entryX=0.5;entryY=0;entryDx=0;entryDy=0;" edge="1" parent="1" source="G_N2jdx2ukAJO5X8EUTF-1" target="G_N2jdx2ukAJO5X8EUTF-3">
          <mxGeometry width="50" height="50" relative="1" as="geometry">
            <mxPoint x="535" y="210" as="sourcePoint"/>
            <mxPoint x="560" y="240" as="targetPoint"/>
          </mxGeometry>
        </mxCell>
        <mxCell id="G_N2jdx2ukAJO5X8EUTF-6" value="" style="endArrow=classic;html=1;exitX=0.25;exitY=1;exitDx=0;exitDy=0;entryX=0.5;entryY=0;entryDx=0;entryDy=0;strokeWidth=2;" edge="1" parent="1" source="G_N2jdx2ukAJO5X8EUTF-1" target="G_N2jdx2ukAJO5X8EUTF-8">
          <mxGeometry width="50" height="50" relative="1" as="geometry">
            <mxPoint x="285" y="160" as="sourcePoint"/>
            <mxPoint x="135" y="240" as="targetPoint"/>
          </mxGeometry>
        </mxCell>
        <mxCell id="G_N2jdx2ukAJO5X8EUTF-7" value="" style="endArrow=classic;html=1;strokeWidth=2;entryX=0.5;entryY=0;entryDx=0;entryDy=0;exitX=1;exitY=1;exitDx=0;exitDy=0;" edge="1" parent="1" source="G_N2jdx2ukAJO5X8EUTF-11" target="G_N2jdx2ukAJO5X8EUTF-9">
          <mxGeometry width="50" height="50" relative="1" as="geometry">
            <mxPoint x="290" y="350" as="sourcePoint"/>
            <mxPoint x="190" y="440" as="targetPoint"/>
          </mxGeometry>
        </mxCell>
        <mxCell id="G_N2jdx2ukAJO5X8EUTF-8" value="&lt;span style=&quot;white-space: normal&quot;&gt;1.1.1&lt;br&gt;&lt;/span&gt;Authenticate User" style="shape=process;whiteSpace=wrap;html=1;backgroundOutline=1;" vertex="1" parent="1">
          <mxGeometry x="260" y="240" width="90" height="80" as="geometry"/>
        </mxCell>
        <mxCell id="G_N2jdx2ukAJO5X8EUTF-9" value="1.1.1.2&lt;br&gt;Deny Access" style="shape=process;whiteSpace=wrap;html=1;backgroundOutline=1;" vertex="1" parent="1">
          <mxGeometry x="270" y="390" width="90" height="80" as="geometry"/>
        </mxCell>
        <mxCell id="G_N2jdx2ukAJO5X8EUTF-10" value="1.1.1.1&lt;br&gt;Allow Access" style="shape=process;whiteSpace=wrap;html=1;backgroundOutline=1;" vertex="1" parent="1">
          <mxGeometry x="160" y="390" width="90" height="80" as="geometry"/>
        </mxCell>
        <mxCell id="G_N2jdx2ukAJO5X8EUTF-11" value="" style="rhombus;whiteSpace=wrap;html=1;fillColor=#FFFFFF;" vertex="1" parent="1">
          <mxGeometry x="295" y="305" width="20" height="30" as="geometry"/>
        </mxCell>
        <mxCell id="G_N2jdx2ukAJO5X8EUTF-12" value="" style="endArrow=classic;html=1;" edge="1" parent="1">
          <mxGeometry width="50" height="50" relative="1" as="geometry">
            <mxPoint x="445" y="485" as="sourcePoint"/>
            <mxPoint x="445" y="485" as="targetPoint"/>
          </mxGeometry>
        </mxCell>
        <mxCell id="G_N2jdx2ukAJO5X8EUTF-13" value="" style="endArrow=classic;html=1;exitX=0;exitY=1;exitDx=0;exitDy=0;strokeWidth=2;entryX=0.5;entryY=0;entryDx=0;entryDy=0;" edge="1" parent="1" source="G_N2jdx2ukAJO5X8EUTF-16" target="G_N2jdx2ukAJO5X8EUTF-22">
          <mxGeometry width="50" height="50" relative="1" as="geometry">
            <mxPoint x="520" y="380" as="sourcePoint"/>
            <mxPoint x="355" y="410" as="targetPoint"/>
          </mxGeometry>
        </mxCell>
        <mxCell id="G_N2jdx2ukAJO5X8EUTF-14" value="" style="endArrow=classic;html=1;strokeWidth=2;exitX=1;exitY=1;exitDx=0;exitDy=0;entryX=0.5;entryY=0;entryDx=0;entryDy=0;" edge="1" parent="1" source="G_N2jdx2ukAJO5X8EUTF-16" target="G_N2jdx2ukAJO5X8EUTF-23">
          <mxGeometry width="50" height="50" relative="1" as="geometry">
            <mxPoint x="440" y="350" as="sourcePoint"/>
            <mxPoint x="475" y="400" as="targetPoint"/>
          </mxGeometry>
        </mxCell>
        <mxCell id="G_N2jdx2ukAJO5X8EUTF-15" value="&lt;span style=&quot;white-space: normal&quot;&gt;1.1.2&lt;br&gt;&lt;/span&gt;Authenticate User Type" style="shape=process;whiteSpace=wrap;html=1;backgroundOutline=1;" vertex="1" parent="1">
          <mxGeometry x="390" y="240" width="90" height="80" as="geometry"/>
        </mxCell>
        <mxCell id="G_N2jdx2ukAJO5X8EUTF-16" value="" style="rhombus;whiteSpace=wrap;html=1;fillColor=#FFFFFF;" vertex="1" parent="1">
          <mxGeometry x="425" y="305" width="20" height="30" as="geometry"/>
        </mxCell>
        <mxCell id="G_N2jdx2ukAJO5X8EUTF-17" value="" style="endArrow=classic;html=1;exitX=0.5;exitY=1;exitDx=0;exitDy=0;entryX=0.5;entryY=0;entryDx=0;entryDy=0;strokeWidth=2;" edge="1" parent="1" source="G_N2jdx2ukAJO5X8EUTF-1" target="G_N2jdx2ukAJO5X8EUTF-15">
          <mxGeometry width="50" height="50" relative="1" as="geometry">
            <mxPoint x="442.5" y="140" as="sourcePoint"/>
            <mxPoint x="237.5" y="260" as="targetPoint"/>
          </mxGeometry>
        </mxCell>
        <mxCell id="G_N2jdx2ukAJO5X8EUTF-22" value="1.1.1.1&lt;br&gt;Allow Access" style="shape=process;whiteSpace=wrap;html=1;backgroundOutline=1;" vertex="1" parent="1">
          <mxGeometry x="385" y="390" width="90" height="80" as="geometry"/>
        </mxCell>
        <mxCell id="G_N2jdx2ukAJO5X8EUTF-23" value="1.1.1.2&lt;br&gt;Deny Access" style="shape=process;whiteSpace=wrap;html=1;backgroundOutline=1;" vertex="1" parent="1">
          <mxGeometry x="495" y="390" width="90" height="80" as="geometry"/>
        </mxCell>
      </root>
    </mxGraphModel>
  </diagram>
  <diagram id="lJ2Lyy_lo-nYcXtIKR5k" name="7.2: Add Dept Info to Dept Table">
    <mxGraphModel dx="1038" dy="580" grid="1" gridSize="10" guides="1" tooltips="1" connect="1" arrows="1" fold="1" page="1" pageScale="1" pageWidth="850" pageHeight="1100" math="0" shadow="0">
      <root>
        <mxCell id="2FddKFQ4fWu9LERN1Jwz-0"/>
        <mxCell id="2FddKFQ4fWu9LERN1Jwz-1" parent="2FddKFQ4fWu9LERN1Jwz-0"/>
        <mxCell id="kPAnGdzFDGQnYrsR_6rP-0" value="7.2&lt;br&gt;Add Department Info Into Department Table" style="whiteSpace=wrap;html=1;aspect=fixed;" vertex="1" parent="2FddKFQ4fWu9LERN1Jwz-1">
          <mxGeometry x="415" y="60" width="90" height="90" as="geometry"/>
        </mxCell>
        <mxCell id="kPAnGdzFDGQnYrsR_6rP-1" value="" style="endArrow=classic;html=1;exitX=0.5;exitY=1;exitDx=0;exitDy=0;entryX=0.5;entryY=0;entryDx=0;entryDy=0;strokeWidth=2;" edge="1" parent="2FddKFQ4fWu9LERN1Jwz-1" source="kPAnGdzFDGQnYrsR_6rP-0" target="kPAnGdzFDGQnYrsR_6rP-2">
          <mxGeometry width="50" height="50" relative="1" as="geometry">
            <mxPoint x="310" y="190" as="sourcePoint"/>
            <mxPoint x="160" y="270" as="targetPoint"/>
          </mxGeometry>
        </mxCell>
        <mxCell id="kPAnGdzFDGQnYrsR_6rP-2" value="&lt;span style=&quot;white-space: normal&quot;&gt;1.2.1&lt;br&gt;&lt;/span&gt;Retrieve Submitted Form Data" style="shape=process;whiteSpace=wrap;html=1;backgroundOutline=1;" vertex="1" parent="2FddKFQ4fWu9LERN1Jwz-1">
          <mxGeometry x="355" y="270" width="90" height="80" as="geometry"/>
        </mxCell>
        <mxCell id="kPAnGdzFDGQnYrsR_6rP-3" value="&lt;span style=&quot;white-space: normal&quot;&gt;1.2.2&lt;br&gt;&lt;/span&gt;Verify Submitted Form Data" style="shape=process;whiteSpace=wrap;html=1;backgroundOutline=1;" vertex="1" parent="2FddKFQ4fWu9LERN1Jwz-1">
          <mxGeometry x="470" y="270" width="90" height="80" as="geometry"/>
        </mxCell>
        <mxCell id="kPAnGdzFDGQnYrsR_6rP-4" value="" style="endArrow=classic;html=1;exitX=0.5;exitY=1;exitDx=0;exitDy=0;entryX=0.5;entryY=0;entryDx=0;entryDy=0;strokeWidth=2;" edge="1" parent="2FddKFQ4fWu9LERN1Jwz-1" source="kPAnGdzFDGQnYrsR_6rP-0" target="kPAnGdzFDGQnYrsR_6rP-3">
          <mxGeometry width="50" height="50" relative="1" as="geometry">
            <mxPoint x="467.5" y="170" as="sourcePoint"/>
            <mxPoint x="262.5" y="290" as="targetPoint"/>
          </mxGeometry>
        </mxCell>
        <mxCell id="kPAnGdzFDGQnYrsR_6rP-5" value="" style="endArrow=classic;html=1;strokeWidth=2;entryX=0.5;entryY=0;entryDx=0;entryDy=0;exitX=0.75;exitY=1;exitDx=0;exitDy=0;" edge="1" parent="2FddKFQ4fWu9LERN1Jwz-1" source="kPAnGdzFDGQnYrsR_6rP-0" target="kPAnGdzFDGQnYrsR_6rP-6">
          <mxGeometry width="50" height="50" relative="1" as="geometry">
            <mxPoint x="480" y="130" as="sourcePoint"/>
            <mxPoint x="560" y="270" as="targetPoint"/>
          </mxGeometry>
        </mxCell>
        <mxCell id="kPAnGdzFDGQnYrsR_6rP-6" value="7.2.4&lt;br&gt;Insert Submitted Form Data Into Department Table" style="whiteSpace=wrap;html=1;aspect=fixed;" vertex="1" parent="2FddKFQ4fWu9LERN1Jwz-1">
          <mxGeometry x="585" y="270" width="90" height="90" as="geometry"/>
        </mxCell>
        <mxCell id="kPAnGdzFDGQnYrsR_6rP-7" value="" style="endArrow=classic;html=1;curved=1;entryX=0.433;entryY=1.029;entryDx=0;entryDy=0;entryPerimeter=0;" edge="1" parent="2FddKFQ4fWu9LERN1Jwz-1" target="kPAnGdzFDGQnYrsR_6rP-0">
          <mxGeometry width="50" height="50" relative="1" as="geometry">
            <mxPoint x="455" y="149.9999999999999" as="sourcePoint"/>
            <mxPoint x="430" y="150" as="targetPoint"/>
            <Array as="points">
              <mxPoint x="490" y="160"/>
              <mxPoint x="470" y="180"/>
              <mxPoint x="440" y="180"/>
              <mxPoint x="420" y="160"/>
            </Array>
          </mxGeometry>
        </mxCell>
        <mxCell id="8o3iqUsPtl5a7d67dNm0-0" value="1.1.3&lt;br&gt;Connect to Database" style="shape=process;whiteSpace=wrap;html=1;backgroundOutline=1;" vertex="1" parent="2FddKFQ4fWu9LERN1Jwz-1">
          <mxGeometry x="245" y="270" width="90" height="80" as="geometry"/>
        </mxCell>
        <mxCell id="8o3iqUsPtl5a7d67dNm0-2" value="" style="endArrow=classic;html=1;entryX=0.5;entryY=0;entryDx=0;entryDy=0;strokeWidth=2;exitX=0.25;exitY=1;exitDx=0;exitDy=0;" edge="1" parent="2FddKFQ4fWu9LERN1Jwz-1" source="kPAnGdzFDGQnYrsR_6rP-0" target="8o3iqUsPtl5a7d67dNm0-0">
          <mxGeometry width="50" height="50" relative="1" as="geometry">
            <mxPoint x="360" y="140" as="sourcePoint"/>
            <mxPoint x="240" y="250" as="targetPoint"/>
          </mxGeometry>
        </mxCell>
      </root>
    </mxGraphModel>
  </diagram>
</mxfile>
